<?xml version="1.0" encoding="UTF-8" standalone="no"?>
<!-- Created with Inkscape (http://www.inkscape.org/) -->

<svg
   width="2048"
   height="2048"
   viewBox="0 0 541.86665 541.86666"
   version="1.1"
   id="svg1"
   xml:space="preserve"
   inkscape:export-filename="autistapp.png"
   inkscape:export-xdpi="96"
   inkscape:export-ydpi="96"
   inkscape:version="1.3 (0e150ed, 2023-07-21)"
   sodipodi:docname="icon.svg"
   xmlns:inkscape="http://www.inkscape.org/namespaces/inkscape"
   xmlns:sodipodi="http://sodipodi.sourceforge.net/DTD/sodipodi-0.dtd"
   xmlns:xlink="http://www.w3.org/1999/xlink"
   xmlns="http://www.w3.org/2000/svg"
   xmlns:svg="http://www.w3.org/2000/svg"><sodipodi:namedview
     id="namedview1"
     pagecolor="#ffffff"
     bordercolor="#000000"
     borderopacity="0.25"
     inkscape:showpageshadow="2"
     inkscape:pageopacity="0.0"
     inkscape:pagecheckerboard="0"
     inkscape:deskcolor="#d1d1d1"
     inkscape:document-units="mm"
     inkscape:zoom="0.15570756"
     inkscape:cx="712.87481"
     inkscape:cy="796.36466"
     inkscape:window-width="1440"
     inkscape:window-height="784"
     inkscape:window-x="0"
     inkscape:window-y="25"
     inkscape:window-maximized="1"
     inkscape:current-layer="layer1" /><defs
     id="defs1"><linearGradient
       id="linearGradient1"
       inkscape:collect="always"><stop
         style="stop-color:#00095c;stop-opacity:1;"
         offset="0"
         id="stop1" /><stop
         style="stop-color:#6d10bb;stop-opacity:1;"
         offset="1"
         id="stop2" /></linearGradient><linearGradient
       inkscape:collect="always"
       xlink:href="#linearGradient1"
       id="linearGradient2"
       x1="120.99161"
       y1="270.93332"
       x2="420.87503"
       y2="270.93332"
       gradientUnits="userSpaceOnUse"
       gradientTransform="matrix(1.7060588,0,0,1.7060588,-191.29485,-191.29485)" /></defs><g
     inkscape:label="Capa 1"
     inkscape:groupmode="layer"
     id="layer1"><path
       d="m 410.74917,143.01664 c -31.00091,0 -60.1312,12.06301 -82.0189,33.97467 l -57.79693,57.78897 -57.71699,-57.79696 c -21.91167,-21.91166 -51.03399,-33.97468 -82.01889,-33.97468 -64.024305,0.008 -116.073512,52.04123 -116.073512,115.99357 v 23.78227 c 0,63.97632 52.049207,115.99359 115.993572,115.99359 31.00089,0 60.13119,-12.06303 82.01887,-33.97468 l 57.79695,-57.67704 57.74097,57.75695 c 21.91169,21.91168 51.03398,33.97472 82.0189,33.97472 64.00831,-0.0399 116.04951,-52.08121 116.04951,-116.03355 v -23.7823 c 0,-63.9923 -52.0412,-116.02553 -115.99355,-116.02553 z M 177.00331,328.71028 C 164.76444,340.94915 148.47257,347.6961 131.13349,347.6961 95.384158,347.6564 66.285814,318.55783 66.285814,282.82447 v -23.7823 c 0,-35.74937 29.106314,-64.85564 64.863656,-64.85564 17.33912,0 33.62296,6.74534 45.86986,18.98583 l 57.74096,57.75699 z m 298.57755,-45.88581 c 0,35.74934 -29.10632,64.85567 -64.86369,64.85567 -17.33906,0 -33.62295,-6.74537 -45.86979,-18.98584 l -57.74099,-57.75698 57.74099,-57.75694 c 12.23888,-12.23892 28.53073,-18.98587 45.86979,-18.98587 35.76538,-0.0242 64.86369,29.07434 64.86369,64.8077 z"
       id="path1"
       style="fill:url(#linearGradient2);stroke-width:0.799405" /></g></svg>
